<svg width="350" height="186" viewBox="0 0 350 186" fill="none" xmlns="http://www.w3.org/2000/svg">
<path d="M112.78 76.1411V109.762L103.829 92.7036L112.78 76.1411Z" fill="#C6E9F7"/>
<path d="M103.829 92.7035H74.3005L59.6655 67.8674H89.2353L103.829 92.7035Z" fill="#4BBCEC"/>
<path d="M103.829 92.7037L89.2353 117.535H59.6655L74.3005 92.7037H103.829Z" fill="#486EB5"/>
<path d="M74.332 92.6518L74.301 92.7035L59.666 117.534L45.0155 92.6776L45 92.6518L59.666 67.8674L74.332 92.6518Z" fill="#2C358A"/>
<path d="M112.078 78.6836L103.831 92.7036L89.237 67.8675H59.6673L59.6518 67.8417L59.6673 67.8158L52.3343 55.4288L51.9881 54.8397L49.7246 51H96.1876C98.0015 51 99.681 51.9716 100.58 53.5426L112.104 73.5934C113.014 75.1695 113.003 77.1177 112.078 78.6836Z" fill="#ACE0F9"/>
<path d="M112.102 111.814L100.578 131.86C99.6791 133.436 97.9995 134.402 96.1857 134.402H49.7278L52.3323 129.978L59.6653 117.586L59.6498 117.56L59.6653 117.535H89.2351L103.829 92.7037L112.076 106.719C113.001 108.29 113.012 110.233 112.102 111.814Z" fill="#75D0EC"/>
<path d="M277.216 75.1753H305V80.1412H293.591V109.912H288.625V80.1412H277.216V75.1753Z" fill="#0F1235"/>
<path d="M247.443 75.1753H272.756V80.1412H252.408V90.0729H269.777V95.0388H252.408V104.946H272.756V109.912H247.443V75.1753Z" fill="#0F1235"/>
<path d="M212.683 109.912H207.717V75.1753H212.683L233.564 102.112V75.1753H238.53V109.912H233.564L212.683 82.9754V109.912Z" fill="#0F1235"/>
<path d="M199.288 105.14C199.288 105.802 199.159 106.424 198.9 107.006C198.658 107.587 198.319 108.096 197.883 108.532C197.463 108.952 196.962 109.291 196.381 109.549C195.8 109.791 195.178 109.912 194.516 109.912H181.217V120.329H176.469V84.1141H181.217V88.4744C181.265 87.8607 181.427 87.2955 181.702 86.7787C181.976 86.2458 182.323 85.7856 182.743 85.398C183.163 84.9942 183.647 84.6793 184.197 84.4532C184.762 84.2272 185.359 84.1141 185.989 84.1141H194.516C195.178 84.1141 195.8 84.2433 196.381 84.5017C196.962 84.7439 197.463 85.0831 197.883 85.5191C198.319 85.939 198.658 86.4396 198.9 87.021C199.159 87.6023 199.288 88.2241 199.288 88.8862V105.14ZM194.516 105.14V88.8862H181.217V105.14H194.516Z" fill="#0F1235"/>
<path d="M168.256 84.1139V109.912H163.484V84.1139H168.256ZM163.242 74.1822H168.498V79.1481H163.242V74.1822Z" fill="#0F1235"/>
<path d="M143.598 104.946C145.907 104.946 147.683 104.325 148.927 103.081C150.17 101.838 150.792 100.061 150.792 97.7519V87.3357C150.792 86.2052 150.631 85.1959 150.308 84.3077C149.985 83.4195 149.508 82.6685 148.878 82.0549C148.265 81.4251 147.514 80.9487 146.626 80.6257C145.737 80.3027 144.728 80.1412 143.598 80.1412H130.904V104.946H143.598ZM125.938 109.912V75.1753H143.598C145.455 75.1753 147.126 75.466 148.612 76.0474C150.114 76.6126 151.39 77.4282 152.439 78.494C153.505 79.5437 154.321 80.8195 154.886 82.3213C155.467 83.8232 155.758 85.4946 155.758 87.3357V97.7519C155.758 99.5929 155.467 101.264 154.886 102.766C154.321 104.268 153.505 105.552 152.439 106.618C151.39 107.667 150.114 108.483 148.612 109.064C147.126 109.63 145.455 109.912 143.598 109.912H125.938Z" fill="#0F1235"/>
</svg>
