<svg width="112" height="32" viewBox="0 0 112 32" fill="none" xmlns="http://www.w3.org/2000/svg">
<path d="M26.0856 9.64648V22.5463L22.6406 16.0012L26.0856 9.64648Z" fill="#C6E9F7"/>
<path d="M22.6417 16.0009H11.2771L5.64453 6.47168H17.025L22.6417 16.0009Z" fill="#4BBCEC"/>
<path d="M22.6417 16.001L17.025 25.5283H5.64453L11.2771 16.001H22.6417Z" fill="#486EB5"/>
<path d="M11.289 15.9811L11.277 16.0009L5.64448 25.528L0.00596512 15.991L0 15.9811L5.64448 6.47168L11.289 15.9811Z" fill="#2C358A"/>
<path d="M25.8152 10.6218L22.6412 16.001L17.0244 6.47179H5.64401L5.63804 6.46189L5.64401 6.45195L2.82177 1.69926L2.68853 1.47323L1.81738 0H19.6995C20.3976 0 21.044 0.372787 21.39 0.975554L25.8252 8.66872C26.1755 9.27345 26.1712 10.0209 25.8152 10.6218Z" fill="#ACE0F9"/>
<path d="M25.8262 23.3333L21.3909 31.0246C21.045 31.6293 20.3986 31.9999 19.7005 31.9999H1.82031L2.8227 30.3025L5.64494 25.5479L5.63897 25.5379L5.64494 25.5283H17.0254L22.6421 16.001L25.8161 21.3784C26.1721 21.9812 26.1764 22.7267 25.8262 23.3333Z" fill="#75D0EC"/>
<path d="M88.123 9.20937H98.6667V11.1011H94.3371V22.4424H92.4526V11.1011H88.123V9.20937Z" fill="#0F1235"/>
<path d="M76.8245 9.20937H86.4305V11.1011H78.7087V14.8846H85.3V16.7764H78.7087V20.5506H86.4305V22.4424H76.8245V9.20937Z" fill="#0F1235"/>
<path d="M63.6336 22.4424H61.749V9.20937H63.6336L71.5576 19.471V9.20937H73.4422V22.4424H71.5576L63.6336 12.1808V22.4424Z" fill="#0F1235"/>
<path d="M58.5501 20.6245C58.5501 20.8767 58.5012 21.1136 58.4029 21.3353C58.3111 21.5567 58.1824 21.7506 58.017 21.9167C57.8576 22.0767 57.6675 22.2058 57.447 22.3041C57.2265 22.3963 56.9905 22.4424 56.7392 22.4424H51.6924V26.4108H49.8906V12.6146H51.6924V14.2757C51.7106 14.0419 51.7721 13.8266 51.8765 13.6297C51.9805 13.4267 52.1121 13.2514 52.2715 13.1037C52.4309 12.9499 52.6146 12.8299 52.8233 12.7438C53.0377 12.6577 53.2643 12.6146 53.5033 12.6146H56.7392C56.9905 12.6146 57.2265 12.6638 57.447 12.7623C57.6675 12.8545 57.8576 12.9838 58.017 13.1499C58.1824 13.3098 58.3111 13.5005 58.4029 13.722C58.5012 13.9435 58.5501 14.1803 58.5501 14.4326V20.6245ZM56.7392 20.6245V14.4326H51.6924V20.6245H56.7392Z" fill="#0F1235"/>
<path d="M46.7742 12.6146V22.4424H44.9632V12.6146H46.7742ZM44.8714 8.83105H46.866V10.7228H44.8714V8.83105Z" fill="#0F1235"/>
<path d="M37.4166 20.5506C38.2928 20.5506 38.9668 20.314 39.4389 19.8401C39.9106 19.3666 40.1466 18.6896 40.1466 17.81V13.8419C40.1466 13.4112 40.0855 13.0267 39.9629 12.6884C39.8404 12.35 39.6594 12.0639 39.4203 11.8302C39.1877 11.5902 38.9027 11.4088 38.5657 11.2857C38.2283 11.1627 37.8454 11.1011 37.4166 11.1011H32.5994V20.5506H37.4166ZM30.7148 22.4424V9.20937H37.4166C38.1213 9.20937 38.7554 9.32011 39.3193 9.5416C39.8893 9.75691 40.3735 10.0676 40.7716 10.4736C41.1762 10.8735 41.4858 11.3595 41.7002 11.9317C41.9207 12.5038 42.0311 13.1405 42.0311 13.8419V17.81C42.0311 18.5113 41.9207 19.1479 41.7002 19.7201C41.4858 20.2923 41.1762 20.7814 40.7716 21.1875C40.3735 21.5872 39.8893 21.898 39.3193 22.1194C38.7554 22.335 38.1213 22.4424 37.4166 22.4424H30.7148Z" fill="#0F1235"/>
</svg>
