<svg width="32" height="32" viewBox="0 0 32 32" fill="none" xmlns="http://www.w3.org/2000/svg">
<path d="M28.7526 9.64648V22.5463L25.3076 16.0012L28.7526 9.64648Z" fill="#C6E9F7"/>
<path d="M25.3086 16.0009H13.9441L8.31152 6.47168H19.692L25.3086 16.0009Z" fill="#4BBCEC"/>
<path d="M25.3086 16.001L19.692 25.5283H8.31152L13.9441 16.001H25.3086Z" fill="#486EB5"/>
<path d="M13.9559 15.9811L13.944 16.0009L8.31147 25.528L2.67296 15.991L2.66699 15.9811L8.31147 6.47168L13.9559 15.9811Z" fill="#2C358A"/>
<path d="M28.4822 10.6218L25.3082 16.001L19.6914 6.47179H8.311L8.30504 6.46189L8.311 6.45195L5.48877 1.69926L5.35552 1.47323L4.48438 0H22.3665C23.0646 0 23.711 0.372787 24.057 0.975554L28.4922 8.66872C28.8424 9.27345 28.8382 10.0209 28.4822 10.6218Z" fill="#ACE0F9"/>
<path d="M28.4922 23.3333L24.0569 31.0246C23.711 31.6293 23.0646 31.9999 22.3665 31.9999H4.48633L5.48872 30.3025L8.31096 25.5479L8.30499 25.5379L8.31096 25.5283H19.6914L25.3082 16.001L28.4822 21.3784C28.8382 21.9812 28.8424 22.7267 28.4922 23.3333Z" fill="#75D0EC"/>
</svg>
